<?xml version="1.0" encoding="UTF-8"?>
<svg xmlns="http://www.w3.org/2000/svg" width="512" height="512" viewBox="0 0 128 128">
  <rect x="4" y="4" width="120" height="120" rx="20" fill="#636AFF"/>
  <rect x="8" y="28" width="4" height="5.5" rx="1.5" fill="#5258E0"/>
  <rect x="8" y="44" width="4" height="5.5" rx="1.5" fill="#5258E0"/>
  <rect x="8" y="60" width="4" height="5.5" rx="1.5" fill="#5258E0"/>
  <rect x="8" y="76" width="4" height="5.5" rx="1.5" fill="#5258E0"/>
  <rect x="8" y="92" width="4" height="5.5" rx="1.5" fill="#5258E0"/>
  <rect x="116" y="28" width="4" height="5.5" rx="1.5" fill="#5258E0"/>
  <rect x="116" y="44" width="4" height="5.5" rx="1.5" fill="#5258E0"/>
  <rect x="116" y="60" width="4" height="5.5" rx="1.5" fill="#5258E0"/>
  <rect x="116" y="76" width="4" height="5.5" rx="1.5" fill="#5258E0"/>
  <rect x="116" y="92" width="4" height="5.5" rx="1.5" fill="#5258E0"/>
  <rect x="24" y="22" width="18" height="84" fill="white"/>
  <path d="M42 22 L72 22 Q100 22 100 50 Q100 68 82 72 L42 72 Z" fill="white"/>
  <polygon points="58,68 78,68 104,106 84,106" fill="white"/>
  <circle cx="70" cy="48" r="16" fill="#636AFF"/>
  <circle cx="70" cy="48" r="4.5" fill="white"/>
  <circle cx="70" cy="37.5" r="2" fill="white" opacity="0.6"/>
  <circle cx="79.997" cy="44.755" r="2" fill="white" opacity="0.6"/>
  <circle cx="76.18" cy="55.245" r="2" fill="white" opacity="0.6"/>
  <circle cx="63.82" cy="55.245" r="2" fill="white" opacity="0.6"/>
  <circle cx="60.003" cy="44.755" r="2" fill="white" opacity="0.6"/>
</svg>