<?xml version="1.0" encoding="UTF-8"?>
<svg xmlns="http://www.w3.org/2000/svg" width="512" height="512" viewBox="0 0 128 128">
  <defs>
    <filter id="grain">
      <feTurbulence type="fractalNoise" baseFrequency="0.7" numOctaves="4" stitchTiles="stitch"/>
      <feColorMatrix type="saturate" values="0"/>
      <feBlend in="SourceGraphic" mode="multiply"/>
    </filter>
    <clipPath id="bg-clip">
      <rect x="4" y="4" width="120" height="120" rx="20"/>
    </clipPath>
  </defs>
  <rect x="4" y="4" width="120" height="120" rx="20" fill="#0c0f1a"/>
  <rect x="4" y="4" width="120" height="120" rx="20" fill="#141830" filter="url(#grain)" clip-path="url(#bg-clip)" opacity="0.6"/>
  <rect x="9" y="28" width="4.5" height="6" rx="1.5" fill="#6366f1" opacity="0.45"/>
  <rect x="9" y="44" width="4.5" height="6" rx="1.5" fill="#6366f1" opacity="0.45"/>
  <rect x="9" y="60" width="4.5" height="6" rx="1.5" fill="#6366f1" opacity="0.45"/>
  <rect x="9" y="76" width="4.5" height="6" rx="1.5" fill="#6366f1" opacity="0.45"/>
  <rect x="9" y="92" width="4.5" height="6" rx="1.5" fill="#6366f1" opacity="0.45"/>
  <rect x="114.5" y="28" width="4.5" height="6" rx="1.5" fill="#6366f1" opacity="0.45"/>
  <rect x="114.5" y="44" width="4.5" height="6" rx="1.5" fill="#6366f1" opacity="0.45"/>
  <rect x="114.5" y="60" width="4.5" height="6" rx="1.5" fill="#6366f1" opacity="0.45"/>
  <rect x="114.5" y="76" width="4.5" height="6" rx="1.5" fill="#6366f1" opacity="0.45"/>
  <rect x="114.5" y="92" width="4.5" height="6" rx="1.5" fill="#6366f1" opacity="0.45"/>
  <rect x="24" y="22" width="18" height="84" fill="#818cf8"/>
  <path d="M42 22 L72 22 Q100 22 100 50 Q100 68 82 72 L42 72 Z" fill="#818cf8"/>
  <polygon points="58,68 78,68 104,106 84,106" fill="#818cf8"/>
  <circle cx="70" cy="48" r="16" fill="#0c0f1a"/>
  <circle cx="70" cy="48" r="4.5" fill="#818cf8"/>
  <circle cx="70" cy="37.5" r="2" fill="#6366f1" opacity="0.7"/>
  <circle cx="79.997" cy="44.755" r="2" fill="#6366f1" opacity="0.7"/>
  <circle cx="76.18" cy="55.245" r="2" fill="#6366f1" opacity="0.7"/>
  <circle cx="63.82" cy="55.245" r="2" fill="#6366f1" opacity="0.7"/>
  <circle cx="60.003" cy="44.755" r="2" fill="#6366f1" opacity="0.7"/>
</svg>